<?xml version="1.0" standalone="no"?><!DOCTYPE svg PUBLIC "-//W3C//DTD SVG 1.1//EN" "http://www.w3.org/Graphics/SVG/1.1/DTD/svg11.dtd"><svg t="1534214863473" class="icon" style="" viewBox="0 0 1024 1024" version="1.1" xmlns="http://www.w3.org/2000/svg" p-id="1690" xmlns:xlink="http://www.w3.org/1999/xlink" width="64" height="64"><defs><style type="text/css"></style></defs><path d="M950.795435 470.318638H835.152261c-30.164817 0-54.631077 24.46626-54.631078 54.733446v5.937419c0 30.267187 24.46626 54.733447 54.665201 54.733447h115.609051c30.19894 0 54.733447-24.534506 54.733446-54.733447l-0.068246-6.005665a54.596954 54.596954 0 0 0-54.6652-54.6652z" p-id="1691"></path><path d="M950.863681 333.826252h-24.125029V69.167516A69.372255 69.372255 0 0 0 857.571135 0H401.242967a69.372255 69.372255 0 0 0-69.167516 69.167516v189.895032c-92.064114 52.037722-186.994568 106.395815-187.199307 106.532307C93.350268 386.785298 17.835856 455.236229 17.835856 616.843214a389.78813 389.78813 0 0 0 3.685294 51.662368c1.330801 9.452098 3.002832 18.494718 4.981972 27.093738 0.716585 3.036956 1.262555 6.244527 2.047386 9.179113 2.661602 9.963944 5.766803 19.279549 9.247359 28.117432 1.740278 4.401879 3.651171 8.428405 5.562065 12.557299 2.047386 4.333633 4.094772 8.564897 6.312773 12.591423 2.559232 4.777233 5.118464 9.417975 7.916558 13.819854l2.081509 3.002832c66.574161 100.594888 189.349062 101.072612 189.349062 101.072612h83.055617v78.585491c0 37.979006 31.120264 69.09927 69.167516 69.09927h456.328168a69.338132 69.338132 0 0 0 69.167517-69.09927v-95.851778h10.544036v-0.068246h13.478623c30.267187 0 54.76757-24.46626 54.733447-54.733447l0.068246-5.937419a54.76757 54.76757 0 0 0-54.767569-54.631077h-115.643174a54.596954 54.596954 0 0 0-54.631078 54.6652v6.073912c0 30.130694 24.46626 54.6652 54.665201 54.6652h43.438702v37.02356H380.189016V399.137859c25.046353-15.86724 48.215935-31.154387 61.455697-41.391316 66.983638-51.79886 130.554967-93.053684 139.153987-130.486721 11.192376-48.523043-26.070046-89.436636-90.69919-55.859509-20.371489 10.57816-62.172282 33.747742-109.910494 60.568496V109.603386l498.43607 0.068246v224.120497h-29.85771v0.068246h-13.546869c-30.19894 0-54.733447 24.46626-54.733447 54.733447v5.937419c0 30.267187 24.534506 54.6652 54.665201 54.6652h115.677297c30.19894 0 54.6652-24.46626 54.6652-54.6652v-6.073912a54.631077 54.631077 0 0 0-54.631077-54.631077z m-321.507815 586.16655a34.566697 34.566697 0 1 1 0.10237 69.09927 34.566697 34.566697 0 0 1-0.10237-69.09927z m73.05755-853.418641h-146.01273a8.360159 8.360159 0 1 1 0-16.720317h146.01273c4.606618 0 8.326036 3.719418 8.326035 8.394282a8.326036 8.326036 0 0 1-8.326035 8.326035z" p-id="1692"></path><path d="M950.795435 606.811023h-115.643174c-30.130694 0-54.6652 24.534506-54.665201 54.733447v6.005665c0 30.19894 24.46626 54.6652 54.665201 54.6652h115.60905c30.267187 0 54.6652-24.46626 54.733447-54.6652l-0.034123-6.005665c0-30.19894-24.398014-54.733447-54.6652-54.733447z" p-id="1693"></path></svg>