<?xml version="1.0" standalone="no"?><!DOCTYPE svg PUBLIC "-//W3C//DTD SVG 1.1//EN" "http://www.w3.org/Graphics/SVG/1.1/DTD/svg11.dtd"><svg t="1578295750674" class="icon" viewBox="0 0 1024 1024" version="1.1" xmlns="http://www.w3.org/2000/svg" p-id="4728" xmlns:xlink="http://www.w3.org/1999/xlink" width="200" height="200"><defs><style type="text/css"></style></defs><path d="M167.936 180.224H102.4v196.608H32.768v417.792h69.632v196.608h65.536v-196.608h69.632V372.736H167.936V180.224z m20.48 258.048v286.72H81.92v-286.72h106.496zM544.768 0h-65.536v196.608H409.6V614.4h69.632v196.608h65.536V614.4H614.4V196.608h-69.632V0z m20.48 258.048v286.72h-102.4v-286.72h102.4zM921.6 180.224h-65.536v196.608h-69.632v417.792h69.632v196.608h65.536v-196.608h69.632V372.736h-69.632V180.224z m20.48 258.048v286.72h-102.4v-286.72H942.08z" fill="#ffffff" p-id="4729"></path></svg>